<svg xmlns="http://www.w3.org/2000/svg" width="420" height="520" viewBox="0 0 420 520"><rect width="100%" height="100%" fill="#ec4899"/><path fill="#ffffff" d="M112.445 293.25h-24.52V225.8h24.52q8.26 0 14.48 2.66t10.4 7.22 6.27 10.69q2.1 6.12 2.1 13.06 0 7.69-2.33 13.92-2.33 6.22-6.7 10.64t-10.5 6.84-13.72 2.42m20.04-33.82q0-4.84-1.33-8.93t-3.9-7.03q-2.56-2.95-6.31-4.56t-8.5-1.61h-11.41v44.45h11.41q4.84 0 8.59-1.71t6.27-4.7 3.85-7.07q1.33-4.09 1.33-8.84m51.87-16.53v11.59q-5.8.1-10.36 2.23-4.56 2.14-6.55 6.41v30.12h-12.73v-49.78h11.68v10.64q1.33-2.56 3.14-4.61 1.8-2.04 3.89-3.56t4.23-2.33 4.13-.81h1.57q.52 0 1 .1m27.74 51.3q-5.99 0-10.83-2.04-4.85-2.05-8.27-5.56-3.42-3.52-5.27-8.17-1.85-4.66-1.85-9.79 0-5.32 1.8-10.02 1.81-4.7 5.23-8.26t8.31-5.66q4.89-2.08 10.97-2.08t10.88 2.08q4.8 2.1 8.17 5.61 3.37 3.52 5.13 8.17t1.76 9.69q0 1.24-.05 2.37-.05 1.14-.24 1.91h-38.47q.28 2.94 1.42 5.22t2.95 3.89q1.8 1.62 4.08 2.48 2.28.85 4.75.85 3.8 0 7.18-1.85 3.37-1.85 4.6-4.9l10.93 3.05q-2.76 5.69-8.79 9.35t-14.39 3.66m-12.92-30.02h25.84q-.48-5.6-4.13-8.98-3.66-3.37-8.89-3.37-2.56 0-4.79.9-2.24.9-3.95 2.52t-2.8 3.9-1.28 5.03m65.55 30.02q-6.27 0-12.26-1.99-5.98-2-10.26-5.71l4.75-7.97q4.56 3.22 8.89 4.89 4.32 1.66 8.59 1.66 3.81 0 5.99-1.43 2.18-1.42 2.18-4.08t-2.56-3.89q-2.57-1.24-8.36-2.86-4.85-1.32-8.27-2.56t-5.51-2.8q-2.09-1.57-3.04-3.61-.95-2.05-.95-4.9 0-3.79 1.48-6.83 1.47-3.04 4.13-5.18t6.22-3.28 7.75-1.14q5.6 0 10.49 1.61 4.9 1.62 8.98 5.23l-5.13 7.69q-3.8-2.85-7.36-4.18-3.57-1.32-7.08-1.32-3.23 0-5.42 1.32-2.18 1.33-2.18 4.28 0 1.33.52 2.19.52.85 1.66 1.51 1.14.67 3 1.29 1.85.61 4.6 1.28 5.13 1.33 8.79 2.66t5.99 3.04q2.32 1.71 3.42 3.94 1.09 2.23 1.09 5.37 0 7.32-5.42 11.54-5.41 4.23-14.72 4.23m47.22 0q-6.28 0-12.26-1.99-5.99-2-10.26-5.71l4.75-7.97q4.56 3.22 8.88 4.89 4.33 1.66 8.6 1.66 3.8 0 5.98-1.43 2.19-1.42 2.19-4.08t-2.57-3.89q-2.56-1.24-8.36-2.86-4.84-1.32-8.26-2.56t-5.51-2.8q-2.09-1.57-3.04-3.61-.95-2.05-.95-4.9 0-3.79 1.47-6.83 1.48-3.04 4.14-5.18 2.65-2.14 6.22-3.28 3.56-1.14 7.74-1.14 5.61 0 10.5 1.61 4.89 1.62 8.97 5.23l-5.12 7.69q-3.8-2.85-7.37-4.18-3.56-1.32-7.08-1.32-3.22 0-5.41 1.32-2.19 1.33-2.19 4.28 0 1.33.53 2.19.52.85 1.66 1.51 1.14.67 2.99 1.29 1.85.61 4.61 1.28 5.13 1.33 8.79 2.66t5.98 3.04q2.33 1.71 3.42 3.94t1.09 5.37q0 7.32-5.41 11.54-5.41 4.23-14.72 4.23"/></svg>