<svg xmlns="http://www.w3.org/2000/svg" width="380" height="480" viewBox="0 0 380 480"><rect width="100%" height="100%" fill="#f97316"/><path fill="#ffffff" d="m104.615 225.65-3.17 5.82q-.36-.36-1.33-.99-.96-.62-2.34-1.22-1.37-.6-2.99-1.01-1.61-.42-3.27-.42-2.97 0-4.42 1.09-1.46 1.1-1.46 3.07 0 1.15.55 1.9.54.75 1.58 1.33 1.04.57 2.63 1.04 1.59.46 3.67.98 2.7.73 4.91 1.56 2.21.84 3.74 2.08 1.54 1.25 2.37 2.99.83 1.75.83 4.29 0 2.97-1.12 5.07-1.11 2.11-3.01 3.41t-4.37 1.9-5.17.6q-4.16 0-8.22-1.25t-7.28-3.54l3.17-6.19q.47.47 1.69 1.23 1.22.75 2.89 1.5 1.66.76 3.69 1.28t4.16.52q5.93 0 5.93-3.8 0-1.19-.68-2.03-.67-.83-1.92-1.45-1.25-.63-3.02-1.15t-3.95-1.14q-2.65-.73-4.6-1.59-1.95-.85-3.25-2.02t-1.95-2.71q-.65-1.53-.65-3.66 0-2.81 1.04-5 1.04-2.18 2.88-3.64 1.85-1.45 4.29-2.21 2.45-.75 5.26-.75 3.9 0 7.17 1.22 3.28 1.22 5.72 2.89m31.36 16.07v17h-6.97v-15.29q0-3.27-1.14-4.78-1.15-1.51-3.18-1.51-1.04 0-2.13.42-1.09.41-2.05 1.17-.96.75-1.74 1.79t-1.15 2.29v15.91h-6.97v-27.25h6.3v5.05q1.5-2.6 4.36-4.06t6.45-1.46q2.55 0 4.16.94t2.5 2.44q.88 1.51 1.22 3.44.34 1.92.34 3.9m18.72 17.52q-3.28 0-5.93-1.12t-4.52-3.04q-1.88-1.92-2.89-4.47t-1.01-5.36q0-2.91.98-5.48.99-2.58 2.86-4.53 1.88-1.95 4.55-3.09 2.68-1.15 6.01-1.15t5.95 1.15q2.63 1.14 4.48 3.07 1.84 1.92 2.8 4.47.97 2.55.97 5.3 0 .68-.03 1.3-.03.63-.13 1.04h-21.06q.16 1.61.78 2.86t1.61 2.13q.99.89 2.24 1.36 1.25.46 2.6.46 2.08 0 3.92-1.01 1.85-1.01 2.53-2.68l5.98 1.67q-1.51 3.12-4.81 5.12-3.31 2-7.88 2m-7.07-16.43h14.14q-.26-3.07-2.26-4.92-2-1.84-4.86-1.84-1.41 0-2.63.49-1.22.5-2.16 1.38-.93.88-1.53 2.13t-.7 2.76m33.02 16.43q-1.98 0-3.7-.65-1.71-.65-2.96-1.82t-1.95-2.73-.7-3.43q0-1.93.86-3.56.85-1.64 2.39-2.79 1.53-1.14 3.66-1.79 2.14-.65 4.68-.65 1.82 0 3.57.31 1.74.31 3.09.89v-1.56q0-2.71-1.53-4.16-1.54-1.46-4.55-1.46-2.19 0-4.27.78t-4.26 2.29l-2.13-4.42q5.25-3.49 11.33-3.49 5.88 0 9.13 2.89t3.25 8.35v8.47q0 1.09.39 1.56t1.27.52v5.93q-1.77.36-3.07.36-1.97 0-3.04-.88-1.06-.88-1.32-2.34l-.16-1.51q-1.82 2.39-4.42 3.64t-5.56 1.25m1.97-5.1q1.77 0 3.36-.62 1.58-.62 2.47-1.66 1.14-.89 1.14-1.98v-3.12q-1.25-.47-2.7-.75-1.46-.29-2.81-.29-2.71 0-4.42 1.22-1.72 1.22-1.72 3.1 0 1.76 1.35 2.93 1.36 1.17 3.33 1.17m46.49 4.58h-7.44l-7.9-11.8-3.74 3.69v8.11h-6.97v-37.96h6.97v23.04l10.92-12.28h7.43l-10.14 11.55zm14.2.52q-3.28 0-5.93-1.12t-4.53-3.04q-1.87-1.92-2.88-4.47-1.02-2.55-1.02-5.36 0-2.91.99-5.48.99-2.58 2.86-4.53t4.55-3.09q2.68-1.15 6.01-1.15t5.95 1.15q2.63 1.14 4.47 3.07 1.85 1.92 2.81 4.47t.96 5.3q0 .68-.02 1.3-.03.63-.13 1.04h-21.06q.15 1.61.78 2.86.62 1.25 1.61 2.13.99.89 2.24 1.36 1.24.46 2.6.46 2.08 0 3.92-1.01 1.85-1.01 2.52-2.68l5.98 1.67q-1.5 3.12-4.81 5.12-3.3 2-7.87 2m-7.08-16.43h14.15q-.26-3.07-2.26-4.92-2.01-1.84-4.87-1.84-1.4 0-2.62.49-1.22.5-2.16 1.38t-1.53 2.13q-.6 1.25-.71 2.76m41.81-11.65v6.34q-3.17.06-5.67 1.23-2.49 1.17-3.58 3.51v16.48h-6.97v-27.25h6.39v5.83q.73-1.41 1.72-2.53.99-1.11 2.13-1.95 1.15-.83 2.32-1.27t2.26-.44h.86q.28 0 .54.05m14.2 28.08q-3.43 0-6.71-1.09t-5.62-3.12l2.6-4.37q2.5 1.77 4.87 2.68 2.36.91 4.7.91 2.08 0 3.28-.78 1.19-.78 1.19-2.24 0-1.45-1.4-2.13t-4.58-1.56q-2.65-.73-4.52-1.4-1.87-.68-3.02-1.54-1.14-.86-1.66-1.97-.52-1.12-.52-2.68 0-2.08.81-3.75.8-1.66 2.26-2.83 1.45-1.17 3.4-1.79 1.95-.63 4.24-.63 3.07 0 5.75.89 2.68.88 4.91 2.86l-2.81 4.21q-2.08-1.56-4.03-2.29t-3.87-.73q-1.77 0-2.96.73-1.2.73-1.2 2.34 0 .73.29 1.2.28.46.91.83.62.36 1.63.7 1.02.34 2.53.7 2.8.73 4.81 1.46 2 .73 3.27 1.66 1.28.94 1.87 2.16.6 1.22.6 2.94 0 4-2.96 6.32-2.97 2.31-8.06 2.31"/></svg>