<svg xmlns="http://www.w3.org/2000/svg" width="440" height="560" viewBox="0 0 440 560"><rect width="100%" height="100%" fill="#0f766e"/><path fill="#ffffff" d="M127.2 250.61v7.62h-14.3v37.11h-8.63v-37.11h-14.3v-7.62zm12.79 45.36q-4.03 0-7.24-1.39-3.22-1.38-5.45-3.74-2.24-2.37-3.44-5.45-1.19-3.09-1.19-6.49 0-3.47 1.19-6.56 1.2-3.08 3.44-5.44 2.23-2.37 5.45-3.75 3.21-1.39 7.24-1.39t7.21 1.39q3.19 1.38 5.42 3.75 2.24 2.36 3.44 5.44 1.19 3.09 1.19 6.56 0 3.4-1.19 6.49-1.2 3.08-3.41 5.45-2.2 2.36-5.41 3.74-3.22 1.39-7.25 1.39m-8.63-17.07q0 2.2.66 4 .66 1.79 1.83 3.12 1.16 1.32 2.74 2.04 1.57.73 3.4.73t3.4-.73q1.58-.72 2.74-2.04 1.17-1.33 1.83-3.15.66-1.83.66-4.04 0-2.14-.66-3.97-.66-1.82-1.83-3.15-1.16-1.32-2.74-2.04-1.57-.73-3.4-.73t-3.4.76q-1.58.75-2.74 2.08-1.17 1.32-1.83 3.15-.66 1.82-.66 3.97m49.2 8.06 1.7 6.68q-1.7.75-4.15 1.51-2.46.76-5.17.76-1.76 0-3.31-.44-1.54-.45-2.71-1.42-1.16-.98-1.86-2.52-.69-1.55-.69-3.75v-18.96h-4.35v-6.49h4.35v-10.71h8.44v10.71h6.93v6.49h-6.93v16.13q0 1.76.92 2.48.91.73 2.23.73 1.33 0 2.59-.44t2.01-.76m20.6 9.01q-3.97 0-7.18-1.35-3.21-1.36-5.48-3.69t-3.5-5.42q-1.22-3.09-1.22-6.49 0-3.52 1.19-6.64 1.2-3.12 3.47-5.48 2.27-2.37 5.51-3.75 3.24-1.39 7.28-1.39 4.03 0 7.21 1.39 3.18 1.38 5.42 3.71 2.23 2.34 3.4 5.42 1.17 3.09 1.17 6.43 0 .82-.04 1.57-.03.76-.15 1.26h-25.52q.19 1.96.95 3.47.75 1.51 1.95 2.58t2.71 1.64 3.15.57q2.52 0 4.76-1.23 2.23-1.23 3.05-3.25l7.25 2.02q-1.83 3.78-5.83 6.2-4 2.43-9.55 2.43m-8.56-19.91h17.13q-.31-3.72-2.74-5.95-2.42-2.24-5.89-2.24-1.7 0-3.18.6t-2.62 1.67q-1.13 1.07-1.85 2.58-.73 1.51-.85 3.34m82.97 7.75q0 2.84-1.14 4.98-1.13 2.14-3.12 3.59-1.98 1.45-4.59 2.2-2.62.76-5.58.76h-21.61v-44.73h23.94q2.33 0 4.22 1.01t3.21 2.61q1.33 1.61 2.05 3.66.73 2.04.73 4.12 0 3.28-1.64 6.15-1.64 2.86-4.79 4.25 3.84 1.13 6.08 4.06t2.24 7.34m-8.76-1.64q0-1.19-.41-2.3-.41-1.1-1.1-1.92-.7-.82-1.64-1.29-.95-.47-2.08-.47h-13.36v11.78h12.92q1.2 0 2.24-.44t1.79-1.23q.76-.79 1.2-1.86t.44-2.27m-6.62-24.13h-11.97v11.28h11.6q2.2 0 3.75-1.51 1.54-1.51 1.54-4.16 0-2.58-1.42-4.09-1.42-1.52-3.5-1.52m30.37 37.93q-2.39 0-4.47-.79t-3.59-2.2q-1.52-1.42-2.37-3.31t-.85-4.16q0-2.33 1.04-4.31 1.04-1.99 2.9-3.37 1.86-1.39 4.44-2.18 2.59-.79 5.67-.79 2.21 0 4.32.38t3.75 1.07v-1.89q0-3.27-1.86-5.04-1.86-1.76-5.51-1.76-2.65 0-5.17.95-2.52.94-5.17 2.77l-2.58-5.36q6.36-4.22 13.73-4.22 7.12 0 11.06 3.5 3.94 3.49 3.94 10.11v10.27q0 1.32.47 1.89.47.56 1.55.63v7.18q-2.15.44-3.72.44-2.4 0-3.69-1.07t-1.6-2.83l-.19-1.83q-2.21 2.9-5.36 4.41t-6.74 1.51m2.39-6.17q2.15 0 4.07-.76t2.99-2.02q1.39-1.07 1.39-2.39v-3.78q-1.51-.57-3.28-.91-1.76-.35-3.4-.35-3.28 0-5.36 1.48-2.07 1.48-2.07 3.75 0 2.14 1.63 3.56 1.64 1.42 4.03 1.42m37.68 5.73q-3.34 0-6.05-1.32-2.71-1.33-4.69-3.63-1.99-2.3-3.06-5.32t-1.07-6.43q0-3.59 1.13-6.67 1.14-3.09 3.15-5.42 2.02-2.33 4.86-3.66 2.83-1.32 6.23-1.32 3.85 0 6.74 1.73 2.9 1.74 4.79 4.63v-5.79h7.37v31.44q0 3.65-1.38 6.55-1.39 2.9-3.81 4.91-2.43 2.02-5.8 3.09t-7.34 1.07q-5.42 0-9.1-1.8-3.69-1.79-6.34-5.07l4.6-4.47q1.89 2.33 4.76 3.65 2.87 1.33 6.08 1.33 1.95 0 3.75-.54 1.79-.53 3.18-1.67 1.39-1.13 2.17-2.9.79-1.76.79-4.15v-4.16q-1.64 2.83-4.6 4.38-2.96 1.54-6.36 1.54m2.83-6.74q1.39 0 2.65-.44t2.33-1.2 1.89-1.76q.82-1.01 1.26-2.15v-7.87q-1.13-2.9-3.56-4.66-2.42-1.77-5.07-1.77-1.95 0-3.53.85-1.57.85-2.71 2.27-1.13 1.42-1.73 3.25-.6 1.82-.6 3.78 0 2.01.69 3.78.7 1.76 1.93 3.08 1.22 1.33 2.86 2.08 1.64.76 3.59.76"/></svg>