<svg xmlns="http://www.w3.org/2000/svg" width="320" height="400" viewBox="0 0 320 400"><rect width="100%" height="100%" fill="#eab308"/><path fill="#ffffff" d="m92.415 198.45-7.37-20.03h7.87l4.96 14.57 4.96-14.57h7.94l-7.51 20.03 5.58 14.07 12.47-34.22h9.3l-17.92 44.02h-7.19l-7.63-18.48-7.63 18.48h-7.19l-17.79-44.02h9.17l12.53 34.22zm47.68 24.49q-2.35 0-4.4-.77-2.05-.78-3.53-2.18-1.49-1.39-2.33-3.25t-.84-4.09q0-2.3 1.03-4.25 1.02-1.95 2.85-3.32 1.83-1.36 4.37-2.14 2.54-.77 5.58-.77 2.17 0 4.25.37 2.07.37 3.69 1.06v-1.86q0-3.23-1.83-4.96-1.83-1.74-5.43-1.74-2.6 0-5.08.93t-5.09 2.73l-2.54-5.27q6.26-4.16 13.52-4.16 7 0 10.88 3.44 3.87 3.45 3.87 9.96v10.1q0 1.3.47 1.86.46.56 1.52.62v7.07q-2.11.43-3.66.43-2.36 0-3.63-1.05t-1.58-2.79l-.18-1.8q-2.17 2.85-5.27 4.34t-6.64 1.49m2.36-6.08q2.11 0 4-.74t2.94-1.98q1.37-1.06 1.37-2.36v-3.72q-1.49-.56-3.23-.9-1.73-.34-3.35-.34-3.22 0-5.27 1.46-2.04 1.45-2.04 3.69 0 2.1 1.61 3.5 1.61 1.39 3.97 1.39m41.91-2.79 1.67 6.58q-1.67.74-4.09 1.48-2.42.75-5.08.75-1.74 0-3.26-.44-1.52-.43-2.66-1.39-1.15-.96-1.83-2.48t-.68-3.69v-18.66h-4.28v-6.39h4.28v-10.54h8.3v10.54h6.82v6.39h-6.82v15.87q0 1.74.9 2.45t2.2.71q1.31 0 2.55-.43 1.24-.44 1.98-.75m3.16-7.99q0-3.41 1.18-6.45t3.41-5.33q2.23-2.3 5.39-3.66 3.17-1.37 7.13-1.37 5.34 0 9.09 2.3 3.75 2.29 5.61 6.01l-8.12 2.48q-1.06-1.8-2.79-2.76-1.74-.96-3.85-.96-1.8 0-3.35.71-1.55.72-2.69 1.99-1.15 1.27-1.8 3.07t-.65 3.97.68 3.96q.68 1.8 1.83 3.1 1.15 1.31 2.7 2.02t3.28.71q2.23 0 4.12-1.11 1.9-1.12 2.64-2.73l8.12 2.48q-1.67 3.72-5.52 6.07-3.84 2.36-9.23 2.36-3.97 0-7.13-1.36-3.17-1.37-5.4-3.69-2.23-2.33-3.44-5.4t-1.21-6.41m67.21-4.03v20.27h-8.31v-18.23q0-3.84-1.42-5.67-1.43-1.83-4.03-1.83-1.12 0-2.36.5-1.24.49-2.36 1.39-1.11.9-2.04 2.14t-1.37 2.73v18.97h-8.3v-45.26h8.3v18.79q1.8-3.17 4.87-4.87 3.07-1.71 6.79-1.71 3.16 0 5.15 1.09 1.98 1.08 3.1 2.88 1.11 1.8 1.55 4.09.43 2.3.43 4.72"/></svg>